<svg width="164" height="207" viewBox="0 0 164 207" fill="none" xmlns="http://www.w3.org/2000/svg">
<g id="Group 66">
<g id="Group">
<path id="Vector" d="M91.1294 139.801C126.604 139.801 155.361 113.922 155.361 82C155.361 50.0776 126.604 24.1994 91.1294 24.1994C55.6551 24.1994 26.8975 50.0776 26.8975 82C26.8975 113.922 55.6551 139.801 91.1294 139.801Z" fill="#006595"/>
<path id="Vector_2" fill-rule="evenodd" clip-rule="evenodd" d="M47.5269 22.0193H117.591C127.646 22.0193 134.296 26.7883 137.512 36.3264V78.6481C137.512 82.4088 134.677 86.3603 129.009 90.5298C125.793 92.5191 122.005 93.5274 117.618 93.5274H101.376V93.8272C123.586 126.447 135.631 144.406 137.512 147.731H114.13C111.35 143.125 99.1413 125.085 77.5853 93.5274V75.5414H109.388C113.53 75.5414 116.364 73.8245 117.89 70.4726C118.108 69.328 118.217 68.4015 118.217 67.7474V47.9355C118.217 44.1748 116.283 41.6404 112.44 40.3051C111.268 40.1143 110.26 40.0053 109.415 40.0053H67.5568V147.731H47.5269V22.0193Z" fill="white"/>
<path id="Vector_3" fill-rule="evenodd" clip-rule="evenodd" d="M91.1293 14.6613C110.859 14.6613 128.791 21.5287 142.171 32.7564H164C147.377 12.8627 120.915 0 91.1293 0C40.7956 0 0 36.7079 0 82C0 127.292 40.7956 164 91.1293 164C120.915 164 147.377 151.137 164 131.244H142.171C128.791 142.471 110.859 149.339 91.1293 149.339C49.7886 149.339 16.2692 119.198 16.2692 82C16.2692 44.8016 49.7886 14.6613 91.1293 14.6613Z" fill="#00AEEF"/>
</g>
<g id="Inova&#195;&#167;&#195;&#181;es">
<path id="INOVA&#195;&#135;&#195;&#149;ES" d="M17.2273 183.545V201H15.1136V183.545H17.2273ZM35.3061 183.545V201H33.2607L23.7493 187.295H23.5788V201H21.4652V183.545H23.5107L33.0561 197.284H33.2266V183.545H35.3061ZM54.2628 192.273C54.2628 194.114 53.9304 195.705 53.2656 197.045C52.6009 198.386 51.6889 199.42 50.5298 200.148C49.3707 200.875 48.0469 201.239 46.5582 201.239C45.0696 201.239 43.7457 200.875 42.5866 200.148C41.4276 199.42 40.5156 198.386 39.8509 197.045C39.1861 195.705 38.8537 194.114 38.8537 192.273C38.8537 190.432 39.1861 188.841 39.8509 187.5C40.5156 186.159 41.4276 185.125 42.5866 184.398C43.7457 183.67 45.0696 183.307 46.5582 183.307C48.0469 183.307 49.3707 183.67 50.5298 184.398C51.6889 185.125 52.6009 186.159 53.2656 187.5C53.9304 188.841 54.2628 190.432 54.2628 192.273ZM52.2173 192.273C52.2173 190.761 51.9645 189.486 51.4588 188.446C50.9588 187.406 50.2798 186.619 49.4219 186.085C48.5696 185.551 47.6151 185.284 46.5582 185.284C45.5014 185.284 44.544 185.551 43.6861 186.085C42.8338 186.619 42.1548 187.406 41.6491 188.446C41.1491 189.486 40.8991 190.761 40.8991 192.273C40.8991 193.784 41.1491 195.06 41.6491 196.099C42.1548 197.139 42.8338 197.926 43.6861 198.46C44.544 198.994 45.5014 199.261 46.5582 199.261C47.6151 199.261 48.5696 198.994 49.4219 198.46C50.2798 197.926 50.9588 197.139 51.4588 196.099C51.9645 195.06 52.2173 193.784 52.2173 192.273ZM57.7124 183.545L62.8942 198.239H63.0987L68.2805 183.545H70.4964L64.0874 201H61.9055L55.4964 183.545H57.7124ZM72.4311 201H70.2152L76.6243 183.545H78.8061L85.2152 201H82.9993L77.7834 186.307H77.647L72.4311 201ZM73.2493 194.182H82.1811V196.057H73.2493V194.182ZM101.159 189H99.0455C98.9205 188.392 98.7017 187.858 98.3892 187.398C98.0824 186.938 97.7074 186.551 97.2642 186.239C96.8267 185.92 96.3409 185.682 95.8068 185.523C95.2727 185.364 94.7159 185.284 94.1364 185.284C93.0795 185.284 92.1222 185.551 91.2642 186.085C90.4119 186.619 89.733 187.406 89.2273 188.446C88.7273 189.486 88.4773 190.761 88.4773 192.273C88.4773 193.784 88.7273 195.06 89.2273 196.099C89.733 197.139 90.4119 197.926 91.2642 198.46C92.1222 198.994 93.0795 199.261 94.1364 199.261C94.7159 199.261 95.2727 199.182 95.8068 199.023C96.3409 198.864 96.8267 198.628 97.2642 198.315C97.7074 197.997 98.0824 197.608 98.3892 197.148C98.7017 196.682 98.9205 196.148 99.0455 195.545H101.159C101 196.437 100.71 197.236 100.29 197.94C99.8693 198.645 99.3466 199.244 98.7216 199.739C98.0966 200.227 97.3949 200.599 96.6165 200.855C95.8438 201.111 95.017 201.239 94.1364 201.239C92.6477 201.239 91.3239 200.875 90.1648 200.148C89.0057 199.42 88.0938 198.386 87.429 197.045C86.7642 195.705 86.4318 194.114 86.4318 192.273C86.4318 190.432 86.7642 188.841 87.429 187.5C88.0938 186.159 89.0057 185.125 90.1648 184.398C91.3239 183.67 92.6477 183.307 94.1364 183.307C95.017 183.307 95.8438 183.435 96.6165 183.69C97.3949 183.946 98.0966 184.321 98.7216 184.815C99.3466 185.304 99.8693 185.901 100.29 186.605C100.71 187.304 101 188.102 101.159 189ZM93.25 201.068H94.9205L94.7841 201.75C95.2273 201.818 95.6335 202.003 96.0028 202.304C96.3722 202.611 96.5568 203.097 96.5568 203.761C96.5568 204.494 96.2528 205.091 95.6449 205.551C95.0426 206.017 94.1534 206.25 92.9773 206.25L92.9091 204.92C93.4375 204.92 93.875 204.835 94.2216 204.665C94.5739 204.5 94.75 204.222 94.75 203.83C94.75 203.438 94.6051 203.17 94.3153 203.028C94.0256 202.886 93.5568 202.79 92.9091 202.739L93.25 201.068ZM119.302 192.273C119.302 194.114 118.969 195.705 118.305 197.045C117.64 198.386 116.728 199.42 115.569 200.148C114.41 200.875 113.086 201.239 111.597 201.239C110.109 201.239 108.785 200.875 107.626 200.148C106.467 199.42 105.555 198.386 104.89 197.045C104.225 195.705 103.893 194.114 103.893 192.273C103.893 190.432 104.225 188.841 104.89 187.5C105.555 186.159 106.467 185.125 107.626 184.398C108.785 183.67 110.109 183.307 111.597 183.307C113.086 183.307 114.41 183.67 115.569 184.398C116.728 185.125 117.64 186.159 118.305 187.5C118.969 188.841 119.302 190.432 119.302 192.273ZM117.256 192.273C117.256 190.761 117.004 189.486 116.498 188.446C115.998 187.406 115.319 186.619 114.461 186.085C113.609 185.551 112.654 185.284 111.597 185.284C110.54 185.284 109.583 185.551 108.725 186.085C107.873 186.619 107.194 187.406 106.688 188.446C106.188 189.486 105.938 190.761 105.938 192.273C105.938 193.784 106.188 195.06 106.688 196.099C107.194 197.139 107.873 197.926 108.725 198.46C109.583 198.994 110.54 199.261 111.597 199.261C112.654 199.261 113.609 198.994 114.461 198.46C115.319 197.926 115.998 197.139 116.498 196.099C117.004 195.06 117.256 193.784 117.256 192.273ZM108.972 181.807L107.404 181.739C107.404 180.869 107.651 180.159 108.146 179.608C108.646 179.051 109.262 178.773 109.995 178.773C110.319 178.773 110.606 178.83 110.856 178.943C111.106 179.051 111.344 179.176 111.572 179.318C111.799 179.46 112.032 179.588 112.271 179.702C112.515 179.81 112.79 179.864 113.097 179.864C113.421 179.864 113.694 179.739 113.915 179.489C114.143 179.233 114.256 178.926 114.256 178.568L115.79 178.705C115.79 179.591 115.54 180.295 115.04 180.818C114.546 181.341 113.933 181.602 113.2 181.602C112.808 181.602 112.484 181.548 112.228 181.44C111.972 181.327 111.745 181.199 111.546 181.057C111.347 180.915 111.137 180.79 110.915 180.682C110.694 180.568 110.421 180.511 110.097 180.511C109.773 180.511 109.504 180.639 109.288 180.895C109.077 181.145 108.972 181.449 108.972 181.807ZM122.856 201V183.545H133.39V185.42H124.969V191.318H132.844V193.193H124.969V199.125H133.526V201H122.856ZM146.745 187.909C146.643 187.045 146.228 186.375 145.501 185.898C144.773 185.42 143.881 185.182 142.825 185.182C142.052 185.182 141.376 185.307 140.796 185.557C140.222 185.807 139.773 186.151 139.45 186.588C139.131 187.026 138.972 187.523 138.972 188.08C138.972 188.545 139.083 188.946 139.305 189.281C139.532 189.611 139.822 189.886 140.174 190.108C140.526 190.324 140.896 190.503 141.282 190.645C141.668 190.781 142.023 190.892 142.347 190.977L144.12 191.455C144.575 191.574 145.08 191.739 145.637 191.949C146.2 192.159 146.737 192.446 147.248 192.81C147.765 193.168 148.191 193.628 148.526 194.19C148.862 194.753 149.029 195.443 149.029 196.261C149.029 197.205 148.782 198.057 148.288 198.818C147.799 199.58 147.083 200.185 146.14 200.634C145.202 201.082 144.063 201.307 142.722 201.307C141.472 201.307 140.39 201.105 139.475 200.702C138.566 200.298 137.85 199.736 137.327 199.014C136.81 198.293 136.518 197.455 136.45 196.5H138.631C138.688 197.159 138.91 197.705 139.296 198.136C139.688 198.562 140.183 198.881 140.779 199.091C141.381 199.295 142.029 199.398 142.722 199.398C143.529 199.398 144.254 199.267 144.896 199.006C145.538 198.739 146.046 198.369 146.421 197.898C146.796 197.42 146.984 196.864 146.984 196.227C146.984 195.648 146.822 195.176 146.498 194.812C146.174 194.449 145.748 194.153 145.219 193.926C144.691 193.699 144.12 193.5 143.506 193.33L141.359 192.716C139.995 192.324 138.915 191.764 138.12 191.037C137.325 190.31 136.927 189.358 136.927 188.182C136.927 187.205 137.191 186.352 137.719 185.625C138.254 184.892 138.969 184.324 139.867 183.92C140.771 183.511 141.779 183.307 142.893 183.307C144.018 183.307 145.018 183.509 145.893 183.912C146.768 184.31 147.461 184.855 147.972 185.548C148.489 186.241 148.762 187.028 148.79 187.909H146.745Z" fill="#006595"/>
</g>
</g>
</svg>
